<?xml version="1.0" encoding="UTF-8"?>
<svg width="82px" height="92px" viewBox="0 0 82 92" version="1.1" xmlns="http://www.w3.org/2000/svg" xmlns:xlink="http://www.w3.org/1999/xlink">
    <title>Combined Shape</title>
    <g id="⛓-Symbols" stroke="none" stroke-width="1" fill="none" fill-rule="evenodd">
        <g id="icon/badge/discount_82px" fill="#30354B">
            <path d="M72.4469557,60 L81.735223,79.1113768 C82.2177646,80.0960994 82.0302767,81.2568888 81.258323,82.0585735 C80.4865573,82.8548957 79.2794512,83.140535 78.2128199,82.7658792 L78.2128199,82.7658792 L65.8630651,78.4930875 L61.3678687,90.2343274 C60.9671297,91.2848293 59.9112174,92 58.7165227,92 C57.6222478,92 56.6246316,91.4003005 56.1588266,90.4518637 L56.1588266,90.4518637 L48,73.639901 C48.6984253,73.2527329 49.3876361,72.8414338 50.0431856,72.3572055 C50.900515,72.4724979 51.7548355,72.5300548 52.5980609,72.5300548 C55.5773697,72.5300548 58.3580955,71.8306139 60.8578715,70.4526457 C64.0660396,68.6921569 66.5270769,65.9310368 67.990498,62.5071192 C69.6417832,61.8697039 71.1238214,61.0115348 72.4469557,60 L72.4469557,60 Z M9.56802623,60 C10.9037445,61.0308975 12.4059813,61.9000645 14.0781194,62.5462721 C15.5435191,65.9683161 18.0005116,68.725766 21.1983795,70.4733826 C23.7049892,71.8546959 26.4869369,72.5558847 29.4728039,72.5558847 C30.3131017,72.5558847 31.1641123,72.4982259 32.0179421,72.3830867 C32.6535689,72.8523904 33.3235894,73.2479695 34,73.626233 L34,73.626233 L25.8259377,90.4538711 C25.3436733,91.4349641 24.2896831,92.0445771 23.1458556,91.9974504 C22.0054112,91.9505021 21.0081801,91.2544901 20.6198877,90.2368025 L20.6198877,90.2368025 L16.1272733,78.5111695 L3.78461215,82.7782817 C2.7214127,83.1549386 1.51499989,82.8671799 0.740858379,82.0717376 C-0.0302760281,81.2712971 -0.217468295,80.1124077 0.264420231,79.128637 L0.264420231,79.128637 Z M31.8328742,3.973183 C36.7298989,-1.32442498 44.2672947,-1.32442498 49.1645066,3.97336686 C52.6411604,2.88729563 55.9808658,3.12723519 58.7501403,4.6981498 C61.5222212,6.27163847 63.4030154,9.17720536 64.1790559,12.674807 C67.7378412,13.4374655 70.5074899,15.2858274 72.1085878,18.0101066 C73.7096858,20.7343859 73.9538354,24.0190757 72.8460882,27.4304462 C75.5412759,29.8368285 77,32.8008634 77,35.9454505 C77,39.0902215 75.541463,42.0570144 72.8460882,44.4632128 C73.9538354,47.8745833 73.7096858,51.1592731 72.1057815,53.8835523 C70.5099221,56.6050736 67.7378412,58.4561935 64.1788688,59.218852 C63.4028284,62.7162698 61.5220341,65.6218366 58.7499532,67.1955092 C55.9806787,68.7717558 52.6465859,69.0116953 49.1643195,67.9202921 C46.7157136,70.5664301 43.6996702,72 40.4999065,72 C37.2971493,72 34.2811059,70.5664301 31.8326871,67.9202921 C28.3614589,69.0116953 25.0163279,68.7717558 22.2470534,67.1927513 C19.4777788,65.6244107 17.5941782,62.7162698 16.8181378,59.2186681 C13.2593525,58.4561935 10.4870845,56.6048898 8.88860584,53.8780365 C7.28750791,51.1590892 7.04335825,47.8743995 8.15110548,44.4630289 C5.45853697,42.0566466 4,39.0926117 4,35.9452667 C4,32.8004957 5.45872406,29.8364607 8.15129257,27.4302623 C7.04354534,24.0188918 7.287695,20.734202 8.88879292,18.0099228 C10.4898908,15.2856436 13.2593525,13.4372816 16.8183249,12.6746232 C17.5941782,9.17720536 19.4779659,6.26888054 22.252666,4.69796593 C25.016515,3.12705133 28.3562204,2.88729563 31.8328742,3.973183 Z M53.2471379,17.1343732 C51.9502449,16.2882416 50.2090181,16.6278342 49.3536524,17.8996058 L49.3536524,17.8996058 L26.8920708,51.0110805 C26.0310925,52.2802781 26.3794501,53.9912953 27.6707305,54.837427 C28.9825906,55.6922001 30.7172692,55.3224542 31.564216,54.0721945 L31.564216,54.0721945 L54.0257976,20.9607197 C54.886776,19.6915222 54.5384184,17.9805049 53.2471379,17.1343732 Z M51.6898186,38.7451131 C47.0451753,38.7451131 43.2667488,42.4583845 43.2667488,47.0229358 C43.2667488,51.5874871 47.0451753,55.3007585 51.6898186,55.3007585 C56.3344618,55.3007585 60.1128883,51.5874871 60.1128883,47.0229358 C60.1128883,42.4583845 56.3344618,38.7451131 51.6898186,38.7451131 Z M52,44 C53.6552276,44 55,45.3447724 55,47 C55,48.6552276 53.6552276,50 52,50 C50.3447724,50 49,48.6552276 49,47 C49,45.3447724 50.3447724,44 52,44 Z M29.2282369,16.6708578 C24.5834066,16.6708578 20.8051672,20.3841293 20.8051672,24.9486806 C20.8051672,29.5132318 24.5835937,33.2265033 29.2282369,33.2265033 C33.8728802,33.2265033 37.6513067,29.5132318 37.6513067,24.9486806 C37.6513067,20.3841293 33.8728802,16.6708578 29.2282369,16.6708578 Z M30,22 C31.6552276,22 33,23.3447724 33,25 C33,26.6552276 31.6552276,28 30,28 C28.3445725,28 27,26.6552276 27,25 C27,23.3447724 28.3447724,22 30,22 Z" id="Combined-Shape"></path>
        </g>
    </g>
</svg>